[Header]
FileType HTR
DataType HTRS
FileVersion 1
NumSegments 22
NumFrames 5
DataFrameRate 24
EulerRotationOrder ZYX
CalibrationUnits mm
RotationUnits Degrees
GlobalAxisofGravity Y
BoneLengthAxis Y
ScaleFactor 1.0
[SegmentNames&Hierarchy]
reference	GLOBAL
Hips	reference
Spine	Hips
Spine1	Spine
Neck	Spine1
Head	Neck
LeftShoulder	Spine1
LeftArm	LeftShoulder
LeftForeArm	LeftArm
LeftHand	LeftForeArm
RightShoulder	Spine1
RightArm	RightShoulder
RightForeArm	RightArm
RightHand	RightForeArm
LeftUpLeg	Hips
LeftLeg	LeftUpLeg
LeftFoot	LeftLeg
LeftToeBase	LeftFoot
RightUpLeg	Hips
RightLeg	RightUpLeg
RightFoot	RightLeg
RightToeBase	RightFoot
[BasePosition]
reference	0	0	0	0	0	0	1
Hips	0	0	0	0	0	0	1
Spine	0	0	0	0	-0	90	1
Spine1	0	0	0	0	0	0	1
Neck	0	0	0	-7.352327771	-7.352327771	90	1
Head	0	0	0	0	-0	90	1
LeftShoulder	0	0	0	0	0	0	1
LeftArm	0	0	0	0	0	0	1
LeftForeArm	0	0	0	0	0	0	1
LeftHand	0	0	0	0	0	0	1
RightShoulder	0	0	0	0	-0	180	1
RightArm	0	0	0	0	-0	180	1
RightForeArm	0	0	0	0	-0	180	1
RightHand	0	0	0	0	-0	180	1
LeftUpLeg	0	0	0	0	-0	-90	1
LeftLeg	0	0	0	0	-0	-90	1
LeftFoot	0	0	0	66.57146043	-66.57146043	-90	1
LeftToeBase	0	0	0	0	-90	0	1
RightUpLeg	0	0	0	0	-0	-90	1
RightLeg	0	0	0	0	-0	-90	1
RightFoot	0	0	0	66.57146043	-66.57146043	-90	1
RightToeBase	0	0	0	0	-90	0	1
[reference]
1	0	0	0	0	-0	0	1.0
2	0	0	0	0	-0	0	1.0
3	0	0	0	0	-0	0	1.0
4	0	0	0	0	-0	0	1.0
5	0	0	0	0	-0	0	1.0
[Hips]
1	2.609579802	8.582590103	-4.822539806	-12.45353699	-101.9343491	13.69381714	1.0
2	2.609579802	8.582590103	-4.822539806	-12.06811333	-101.773735	13.45909119	1.0
3	2.609579802	8.582590103	-4.821729183	-12.1446352	-101.6904221	13.58897686	1.0
4	2.609579802	8.582590103	-4.814229012	-12.24841881	-101.6143341	13.74165916	1.0
5	2.609579802	8.582590103	-4.806742191	-12.47696495	-101.5381851	13.98401833	1.0
[Spine]
1	0	0.7457100153	0	-11.45211792	0.8640067577	-87.62232971	1.0
2	0	0.7457100153	0	-11.48871517	0.859906733	-87.6716156	1.0
3	0	0.7457100153	0	-11.50843716	0.8738384247	-87.73420715	1.0
4	0	0.7457100153	0	-11.50710392	0.8973028064	-87.73544312	1.0
5	0	0.7457100153	0	-11.49667645	0.8990218043	-87.72564697	1.0
[Spine1]
1	0	2.140589952	0	12.79180241	0.03232048824	1.557372689	1.0
2	0	2.140589952	0	12.71363544	0.03250013292	1.533849001	1.0
3	0	2.140589952	0	12.67271614	0.03723597154	1.585274696	1.0
4	0	2.140589952	0	12.64169312	0.04598401114	1.591448188	1.0
5	0	2.140589952	0	12.6234293	0.04385248944	1.605698943	1.0
[Neck]
1	0	2.32246995	0	-12.0547266	9.923722267	-90.67719269	1.0
2	0	2.32246995	0	-12.09823036	9.893606186	-90.66746521	1.0
3	0	2.32246995	0	-12.18599319	9.875687599	-90.68680573	1.0
4	0	2.32246995	0	-12.2620306	9.874950409	-90.7091217	1.0
5	0	2.32246995	0	-12.2865324	9.87019825	-90.74790192	1.0
[Head]
1	0	1.409579992	0.1818799973	-3.5050385	2.960654736	-92.65546417	1.0
2	0	1.409579992	0.1818799973	-3.47016263	2.927459478	-92.63879395	1.0
3	0	1.409579992	0.1818799973	-3.374727249	2.905691624	-92.61823273	1.0
4	0	1.409579992	0.1818799973	-3.300055265	2.909189701	-92.57627869	1.0
5	0	1.409579992	0.1818799973	-3.241517067	2.906170368	-92.51725769	1.0
[LeftShoulder]
1	0.3668199778	1.946700096	-0.02662999928	-15.07306194	-12.76698589	-4.439482212	1.0
2	0.3668199778	1.946700096	-0.02662999928	-15.01890278	-12.76658535	-4.426006317	1.0
3	0.3668199778	1.946700096	-0.02662999928	-14.99351883	-12.7901392	-4.452926636	1.0
4	0.3668199778	1.946700096	-0.02662999928	-14.95303345	-12.83935928	-4.432012558	1.0
5	0.3668199778	1.946700096	-0.02662999928	-14.95519352	-12.83745956	-4.402562618	1.0
[LeftArm]
1	1.140689969	0	0	42.20623779	16.13570786	-76.19795227	1.0
2	1.140689969	0	0	42.0537796	16.20781708	-76.18336487	1.0
3	1.140689969	0	0	41.97923279	16.30349541	-76.18691254	1.0
4	1.140689969	0	0	41.79682541	16.40137482	-76.1489563	1.0
5	1.140689969	0	0	41.7077446	16.51234245	-76.14394379	1.0
[LeftForeArm]
1	2.749800205	0	0	-15.88608646	-14.53692055	3.105972528	1.0
2	2.749800205	0	0	-15.77040863	-14.30575275	2.954070091	1.0
3	2.749800205	0	0	-15.79088211	-14.07945442	2.835053682	1.0
4	2.749800205	0	0	-15.64791203	-13.99625301	2.60090661	1.0
5	2.749800205	0	0	-15.59898949	-13.90543652	2.497576237	1.0
[LeftHand]
1	2.295179844	0	0	-15.33488941	-5.732086182	-3.098215342	1.0
2	2.295179844	0	0	-15.24279976	-5.687137604	-3.159994841	1.0
3	2.295179844	0	0	-15.28327847	-5.576746464	-3.235749006	1.0
4	2.295179844	0	0	-15.17373657	-5.598845482	-3.169669151	1.0
5	2.295179844	0	0	-15.11720562	-5.594266891	-3.629137039	1.0
[RightShoulder]
1	-0.3601199985	1.946700096	-0.02662999928	-5.580834389	3.043641806	176.9216309	1.0
2	-0.3601199985	1.946700096	-0.02662999928	-5.624127865	3.062623739	176.9071045	1.0
3	-0.3601199985	1.946700096	-0.02662999928	-5.636598587	3.069092989	176.8627319	1.0
4	-0.3601199985	1.946700096	-0.02662999928	-5.696676731	3.105337143	176.8083344	1.0
5	-0.3601199985	1.946700096	-0.02662999928	-5.78489542	3.123279333	176.7930908	1.0
[RightArm]
1	-1.140689969	0	0	49.30089188	-0.8858063817	-98.93909454	1.0
2	-1.140689969	0	0	49.17650604	-1.029441714	-98.96733856	1.0
3	-1.140689969	0	0	49.14546204	-1.101418734	-98.94778442	1.0
4	-1.140689969	0	0	49.23096466	-1.181521058	-98.88105011	1.0
5	-1.140689969	0	0	49.36211395	-1.238179326	-98.83968353	1.0
[RightForeArm]
1	-2.749800205	0	0	-0.6792696118	14.07113075	178.4857483	1.0
2	-2.749800205	0	0	-0.5655138493	14.04625511	178.5989075	1.0
3	-2.749800205	0	0	-0.5614159107	14.04656601	178.6286926	1.0
4	-2.749800205	0	0	-0.6164397001	14.0601902	178.5875702	1.0
5	-2.749800205	0	0	-0.5806123614	14.07190609	178.5942535	1.0
[RightHand]
1	-2.295179844	0	0	-0.841596365	8.400644302	175.2488556	1.0
2	-2.295179844	0	0	-0.7410649061	8.421672821	175.2758331	1.0
3	-2.295179844	0	0	-0.7402725816	8.434620857	175.2874756	1.0
4	-2.295179844	0	0	-0.7936995029	8.463461876	175.2540131	1.0
5	-2.295179844	0	0	-0.7648270726	8.546988487	175.2174835	1.0
[LeftUpLeg]
1	0.9094099998	0	0	7.362127304	3.367252111	96.56503296	1.0
2	0.9094099998	0	0	7.141505718	3.266525984	96.48919678	1.0
3	0.9094099998	0	0	6.978315353	3.203355551	96.44442749	1.0
4	0.9094099998	0	0	6.942162514	3.207352161	96.45149231	1.0
5	0.9094099998	0	0	6.968827248	3.137987137	96.49111176	1.0
[LeftLeg]
1	0	-4.498080254	0	1.646625161	0.1694639921	89.12127686	1.0
2	0	-4.498080254	0	1.775732398	0.09735006094	89.11739349	1.0
3	0	-4.498080254	0	1.823220849	0.10095869	89.13051605	1.0
4	0	-4.498080254	0	1.776287436	0.1137766168	89.15447998	1.0
5	0	-4.498080254	0	1.696891427	0.07310479134	89.14043427	1.0
[LeftFoot]
1	0	-3.729400158	0	-68.46407318	108.0780334	-20.09225464	1.0
2	0	-3.729400158	0	-68.60688782	108.2026672	-20.209198	1.0
3	0	-3.729400158	0	-68.61878204	108.1763306	-20.24365234	1.0
4	0	-3.729400158	0	-68.69780731	108.0860825	-20.35867691	1.0
5	0	-3.729400158	0	-68.86638641	108.2300262	-20.54710388	1.0
[LeftToeBase]
1	0	-0.5911099911	1.364109993	0	0	0	1.0
2	0	-0.5911099911	1.364109993	0	0	0	1.0
3	0	-0.5911099911	1.364109993	0	0	0	1.0
4	0	-0.5911099911	1.364109993	0	0	0	1.0
5	0	-0.5911099911	1.364109993	0	0	0	1.0
[RightUpLeg]
1	-0.9094099998	0	0	3.615870714	-1.077896476	92.43655396	1.0
2	-0.9094099998	0	0	3.459574699	-1.184205532	92.38008118	1.0
3	-0.9094099998	0	0	3.319779873	-1.322132111	92.37577057	1.0
4	-0.9094099998	0	0	3.275464535	-1.344461203	92.38607788	1.0
5	-0.9094099998	0	0	3.306195974	-1.350797653	92.43608093	1.0
[RightLeg]
1	0	-4.498080254	0	3.285595655	-1.336337566	90.71762085	1.0
2	0	-4.498080254	0	3.354746103	-1.368149638	90.70204163	1.0
3	0	-4.498080254	0	3.415474415	-1.417094469	90.63340759	1.0
4	0	-4.498080254	0	3.432888031	-1.389405966	90.64082336	1.0
5	0	-4.498080254	0	3.393542528	-1.457109928	90.61196136	1.0
[RightFoot]
1	0	-3.729400158	0	50.20852661	64.21166229	91.98949432	1.0
2	0	-3.729400158	0	50.22407913	64.20825195	92.05091095	1.0
3	0	-3.729400158	0	50.48970795	64.20034027	92.35142517	1.0
4	0	-3.729400158	0	50.26998138	64.20148468	92.11547852	1.0
5	0	-3.729400158	0	50.37835312	64.18496704	92.17467499	1.0
[RightToeBase]
1	0	-0.5911099911	1.364109993	0	0	0	1.0
2	0	-0.5911099911	1.364109993	0	0	0	1.0
3	0	-0.5911099911	1.364109993	0	0	0	1.0
4	0	-0.5911099911	1.364109993	0	0	0	1.0
5	0	-0.5911099911	1.364109993	0	0	0	1.0
[EndOfFile]
